<?xml version="1.0" standalone="no"?>
<!DOCTYPE svg PUBLIC "-//W3C//DTD SVG 20010904//EN"
 "http://www.w3.org/TR/2001/REC-SVG-20010904/DTD/svg10.dtd">
<svg version="1.0" xmlns="http://www.w3.org/2000/svg"
 width="300.000000pt" height="200.000000pt" viewBox="0 0 300.000000 200.000000"
 preserveAspectRatio="xMidYMid meet">
<metadata>
Created by potrace 1.10, written by Peter Selinger 2001-2011
</metadata>
<g transform="translate(0.000000,200.000000) scale(0.100000,-0.100000)"
fill="#000000" stroke="none">
<path d="M1355 1128 c-98 -177 -196 -297 -231 -284 -8 3 -14 -1 -14 -9 0 -22
37 -28 67 -10 39 24 89 89 151 197 28 51 52 89 52 84 0 -5 -14 -61 -31 -123
-16 -63 -29 -126 -27 -141 4 -35 37 -43 45 -11 9 33 113 242 118 237 2 -2 -9
-45 -25 -96 -33 -100 -36 -132 -18 -150 23 -23 35 -12 42 37 4 27 20 97 36
155 35 125 36 137 10 161 -19 17 -20 17 -25 -1 -10 -33 -106 -226 -110 -222
-2 2 8 47 22 101 21 79 24 101 15 122 -6 14 -17 25 -24 25 -7 0 -31 -33 -53
-72z"/>
<path d="M1785 1181 c-48 -29 -67 -57 -72 -103 -4 -32 -1 -47 11 -57 14 -12
13 -15 -9 -33 -76 -60 -71 -164 9 -184 60 -15 173 80 164 138 -3 21 -5 19 -22
-15 -31 -62 -101 -109 -141 -93 -20 7 -19 65 1 95 20 27 76 53 98 45 15 -6 18
-2 20 29 1 7 -17 14 -44 17 -40 4 -45 8 -48 33 -6 50 91 125 105 81 2 -6 -8
-27 -21 -47 -19 -28 -22 -37 -11 -37 20 0 55 58 55 92 0 16 -9 33 -22 42 -29
20 -36 20 -73 -3z"/>
<path d="M1559 839 c-8 -16 -8 -24 0 -32 16 -16 45 3 49 32 5 29 -33 29 -49 0z"/>
</g>
</svg>
